# Blender v3.2.1 OBJ File: ''
# www.blender.org
o Axes
v -1.009500 -14.948418 0.309998
v -1.009500 -14.594418 0.309998
v -0.163500 -13.898417 0.309998
v -1.009500 -13.193417 0.309998
v -1.009500 -12.836417 0.309998
v 0.049500 -13.718418 0.309998
v 1.036500 -12.899418 0.309998
v 1.036500 -13.256418 0.309998
v 0.256500 -13.898417 0.309998
v 1.036500 -14.537416 0.309998
v 1.036500 -14.891417 0.309998
v 0.049500 -14.075418 0.309998
v 0.172500 -12.077417 0.309998
v 0.172500 -12.662416 0.309998
v -0.073500 -12.662416 0.309998
v -0.073500 -12.077417 0.309998
v -0.658500 -12.077417 0.309998
v -0.658500 -11.831418 0.309998
v -0.073500 -11.831418 0.309998
v -0.073500 -11.246418 0.309998
v 0.172500 -11.246418 0.309998
v 0.172500 -11.831418 0.309998
v 0.757500 -11.831418 0.309998
v 0.757500 -12.077417 0.309998
v -1.009500 -14.948418 -0.290002
v -1.009500 -14.594418 -0.290002
v -0.163500 -13.898417 -0.290002
v -1.009500 -13.193417 -0.290002
v -1.009500 -12.836417 -0.290001
v 0.049500 -13.718418 -0.290002
v 1.036500 -12.899418 -0.290002
v 1.036500 -13.256418 -0.290002
v 0.256500 -13.898417 -0.290002
v 1.036500 -14.537416 -0.290002
v 1.036500 -14.891417 -0.290002
v 0.049500 -14.075418 -0.290002
v 0.172500 -12.077417 -0.290001
v 0.172500 -12.662416 -0.290001
v -0.073500 -12.662416 -0.290001
v -0.073500 -12.077417 -0.290001
v -0.658500 -12.077417 -0.290001
v -0.658500 -11.831418 -0.290001
v -0.073500 -11.831418 -0.290001
v -0.073500 -11.246418 -0.290001
v 0.172500 -11.246418 -0.290001
v 0.172500 -11.831418 -0.290001
v 0.757500 -11.831418 -0.290001
v 0.757500 -12.077417 -0.290001
v 0.172500 -12.077417 -0.290001
v 0.172500 -12.077417 0.309998
v 0.172500 -12.662416 -0.290001
v 0.172500 -12.662416 0.309998
v -0.073500 -12.662416 -0.290001
v -0.073500 -12.662416 0.309998
v -0.073500 -12.077417 -0.290001
v -0.073500 -12.077417 0.309998
v -0.658500 -12.077417 -0.290001
v -0.658500 -12.077417 0.309998
v -0.658500 -11.831418 -0.290001
v -0.658500 -11.831418 0.309998
v -0.073500 -11.831418 -0.290001
v -0.073500 -11.831418 0.309998
v -0.073500 -11.246418 -0.290001
v -0.073500 -11.246418 0.309998
v 0.172500 -11.246418 -0.290001
v 0.172500 -11.246418 0.309998
v 0.172500 -11.831418 -0.290001
v 0.172500 -11.831418 0.309998
v 0.757500 -11.831418 -0.290001
v 0.757500 -11.831418 0.309998
v 0.757500 -12.077417 -0.290001
v 0.757500 -12.077417 0.309998
v -1.009500 -14.948418 -0.290002
v -1.009500 -14.948418 0.309998
v -1.009500 -14.594418 -0.290002
v -1.009500 -14.594418 0.309998
v -0.163500 -13.898417 -0.290002
v -0.163500 -13.898417 0.309998
v -1.009500 -13.193417 -0.290002
v -1.009500 -13.193417 0.309998
v -1.009500 -12.836417 -0.290001
v -1.009500 -12.836417 0.309998
v 0.049500 -13.718418 -0.290002
v 0.049500 -13.718418 0.309998
v 1.036500 -12.899418 -0.290002
v 1.036500 -12.899418 0.309998
v 1.036500 -13.256418 -0.290002
v 1.036500 -13.256418 0.309998
v 0.256500 -13.898417 -0.290002
v 0.256500 -13.898417 0.309998
v 1.036500 -14.537416 -0.290002
v 1.036500 -14.537416 0.309998
v 1.036500 -14.891417 -0.290002
v 1.036500 -14.891417 0.309998
v 0.049500 -14.075418 -0.290002
v 0.049500 -14.075418 0.309998
v -1.000000 1.000002 -1.000000
v -1.000000 1.000001 1.000000
v 1.000000 1.000002 -1.000000
v 1.000000 1.000001 1.000000
v -1.000000 -0.999999 -1.000000
v -1.000000 -1.000000 0.999999
v 1.000000 -0.999999 -1.000000
v 1.000000 -1.000000 0.999999
v 1.000000 -11.000000 0.999998
v 1.000000 -11.000000 -1.000001
v -1.000000 -11.000000 -1.000001
v -1.000000 -11.000000 0.999998
v 11.000000 1.000001 1.000000
v 11.000000 1.000002 -1.000000
v 11.000000 -0.999999 -1.000000
v 11.000000 -1.000000 0.999999
v -1.000000 1.000000 11.000000
v 1.000000 1.000000 11.000000
v 1.000000 -1.000001 11.000000
v -1.000000 -1.000001 11.000000
v 14.666001 1.060083 0.310000
v 13.907001 0.094083 0.309999
v 13.907001 -0.985918 0.309999
v 13.613002 -0.985918 0.309999
v 13.613002 0.097083 0.309999
v 12.854001 1.060083 0.310000
v 13.208001 1.060083 0.310000
v 13.757002 0.355082 0.309999
v 14.312001 1.060083 0.310000
v 12.101002 0.196083 0.309999
v 12.686001 0.196083 0.309999
v 12.686001 -0.049917 0.309999
v 12.101002 -0.049917 0.309999
v 12.101002 -0.634917 0.309999
v 11.855000 -0.634917 0.309999
v 11.855000 -0.049917 0.309999
v 11.270000 -0.049917 0.309999
v 11.270000 0.196083 0.309999
v 11.855000 0.196083 0.309999
v 11.855000 0.781083 0.310000
v 12.101002 0.781083 0.310000
v 14.666001 1.060083 -0.290000
v 13.907001 0.094083 -0.290000
v 13.907001 -0.985918 -0.290000
v 13.613002 -0.985918 -0.290000
v 13.613002 0.097083 -0.290000
v 12.854001 1.060083 -0.290000
v 13.208001 1.060083 -0.290000
v 13.757002 0.355083 -0.290000
v 14.312001 1.060083 -0.290000
v 12.101002 0.196083 -0.290000
v 12.686001 0.196083 -0.290000
v 12.686001 -0.049917 -0.290000
v 12.101002 -0.049917 -0.290000
v 12.101002 -0.634917 -0.290000
v 11.855000 -0.634917 -0.290000
v 11.855000 -0.049917 -0.290000
v 11.270000 -0.049917 -0.290000
v 11.270000 0.196083 -0.290000
v 11.855000 0.196083 -0.290000
v 11.855000 0.781083 -0.290000
v 12.101002 0.781083 -0.290000
v 12.101002 0.196083 -0.290000
v 12.101002 0.196083 0.309999
v 12.686001 0.196083 -0.290000
v 12.686001 0.196083 0.309999
v 12.686001 -0.049917 -0.290000
v 12.686001 -0.049917 0.309999
v 12.101002 -0.049917 -0.290000
v 12.101002 -0.049917 0.309999
v 12.101002 -0.634917 -0.290000
v 12.101002 -0.634917 0.309999
v 11.855000 -0.634917 -0.290000
v 11.855000 -0.634917 0.309999
v 11.855000 -0.049917 -0.290000
v 11.855000 -0.049917 0.309999
v 11.270000 -0.049917 -0.290000
v 11.270000 -0.049917 0.309999
v 11.270000 0.196083 -0.290000
v 11.270000 0.196083 0.309999
v 11.855000 0.196083 -0.290000
v 11.855000 0.196083 0.309999
v 11.855000 0.781083 -0.290000
v 11.855000 0.781083 0.310000
v 12.101002 0.781083 -0.290000
v 12.101002 0.781083 0.310000
v 14.666001 1.060083 -0.290000
v 14.666001 1.060083 0.310000
v 13.907001 0.094083 -0.290000
v 13.907001 0.094083 0.309999
v 13.907001 -0.985918 -0.290000
v 13.907001 -0.985918 0.309999
v 13.613002 -0.985918 -0.290000
v 13.613002 -0.985918 0.309999
v 13.613002 0.097083 -0.290000
v 13.613002 0.097083 0.309999
v 12.854001 1.060083 -0.290000
v 12.854001 1.060083 0.310000
v 13.208001 1.060083 -0.290000
v 13.208001 1.060083 0.310000
v 13.757002 0.355083 -0.290000
v 13.757002 0.355082 0.309999
v 14.312001 1.060083 -0.290000
v 14.312001 1.060083 0.310000
v 0.101000 -0.276418 12.182500
v 0.686000 -0.276418 12.182500
v 0.686000 -0.276418 11.936500
v 0.101000 -0.276418 11.936500
v 0.101000 -0.276418 11.351500
v -0.145000 -0.276418 11.351500
v -0.145000 -0.276418 11.936500
v -0.730000 -0.276418 11.936500
v -0.730000 -0.276418 12.182500
v -0.145000 -0.276418 12.182500
v -0.145000 -0.276418 12.767500
v 0.101000 -0.276418 12.767500
v -0.769000 -0.276419 16.046501
v 0.995000 -0.276419 16.046501
v -0.307000 -0.276418 14.264501
v 0.995000 -0.276418 14.264501
v 0.995000 -0.276418 14.000499
v -0.850000 -0.276418 14.000499
v 0.452000 -0.276419 15.782500
v -0.769000 -0.276419 15.782500
v 0.101000 0.323581 12.182500
v 0.686000 0.323581 12.182500
v 0.686000 0.323581 11.936500
v 0.101000 0.323581 11.936500
v 0.101000 0.323581 11.351500
v -0.145000 0.323581 11.351500
v -0.145000 0.323581 11.936500
v -0.730000 0.323581 11.936500
v -0.730000 0.323581 12.182500
v -0.145000 0.323581 12.182500
v -0.145000 0.323581 12.767500
v 0.101000 0.323581 12.767500
v -0.769000 0.323581 16.046501
v 0.995000 0.323581 16.046501
v -0.307000 0.323581 14.264501
v 0.995000 0.323581 14.264501
v 0.995000 0.323581 14.000499
v -0.850000 0.323581 14.000499
v 0.452000 0.323581 15.782500
v -0.769000 0.323581 15.782500
v -0.769000 0.323581 16.046501
v -0.769000 -0.276419 16.046501
v 0.995000 0.323581 16.046501
v 0.995000 -0.276419 16.046501
v -0.307000 0.323581 14.264501
v -0.307000 -0.276418 14.264501
v 0.995000 0.323581 14.264501
v 0.995000 -0.276418 14.264501
v 0.995000 0.323581 14.000499
v 0.995000 -0.276418 14.000499
v -0.850000 0.323581 14.000499
v -0.850000 -0.276418 14.000499
v 0.452000 0.323581 15.782500
v 0.452000 -0.276419 15.782500
v -0.769000 0.323581 15.782500
v -0.769000 -0.276419 15.782500
v 0.101000 0.323581 12.182500
v 0.101000 -0.276418 12.182500
v 0.686000 0.323581 12.182500
v 0.686000 -0.276418 12.182500
v 0.686000 0.323581 11.936500
v 0.686000 -0.276418 11.936500
v 0.101000 0.323581 11.936500
v 0.101000 -0.276418 11.936500
v 0.101000 0.323581 11.351500
v 0.101000 -0.276418 11.351500
v -0.145000 0.323581 11.351500
v -0.145000 -0.276418 11.351500
v -0.145000 0.323581 11.936500
v -0.145000 -0.276418 11.936500
v -0.730000 0.323581 11.936500
v -0.730000 -0.276418 11.936500
v -0.730000 0.323581 12.182500
v -0.730000 -0.276418 12.182500
v -0.145000 0.323581 12.182500
v -0.145000 -0.276418 12.182500
v -0.145000 0.323581 12.767500
v -0.145000 -0.276418 12.767500
v 0.101000 0.323581 12.767500
v 0.101000 -0.276418 12.767500
vn -0.0000 -0.0000 1.0000
vn 0.0000 0.0000 -1.0000
vn 0.0000 1.0000 0.0000
vn -1.0000 0.0000 0.0000
vn 0.0000 -1.0000 0.0000
vn 1.0000 0.0000 0.0000
vn 0.7071 -0.7071 0.0000
vn -0.7071 -0.7071 0.0000
vn -0.7071 0.7071 0.0000
vn 0.7071 0.7071 0.0000
vn -0.9042 0.4270 0.0000
vn -0.4266 -0.9045 0.0000
vn -1.0000 0.0032 0.0000
vn -0.9056 -0.4242 0.0000
vn -0.4243 0.9055 0.0000
vn 0.0009 1.0000 0.0000
vn 0.4251 0.9051 0.0000
vn 0.9043 -0.4269 0.0000
vn 1.0000 0.0011 0.0000
vn 0.9038 0.4279 0.0000
vn 0.4259 -0.9048 0.0000
vn -0.0007 -1.0000 0.0000
vn 0.9451 -0.3269 0.0000
vn 0.8994 0.4371 0.0000
vn -0.9448 -0.3276 0.0000
vn -0.8997 0.4365 0.0000
vn 0.4391 0.8984 0.0000
vn 0.0026 1.0000 0.0000
vn -0.4367 0.8996 0.0000
vn 0.8916 0.0000 0.4528
vn -0.7071 0.0000 0.7071
vn 0.7071 0.0000 0.7071
vn 0.7071 0.0000 -0.7071
vn -0.8916 0.0000 -0.4528
vn -0.7071 0.0000 -0.7071
s off
f 6//1 8//1 7//1
f 6//1 9//1 8//1
f 9//1 11//1 10//1
f 9//1 12//1 11//1
f 6//1 12//1 9//1
f 5//1 12//1 6//1
f 5//1 3//1 12//1
f 3//1 1//1 12//1
f 5//1 4//1 3//1
f 2//1 1//1 3//1
f 22//1 24//1 23//1
f 22//1 13//1 24//1
f 20//1 22//1 21//1
f 20//1 13//1 22//1
f 20//1 14//1 13//1
f 20//1 15//1 14//1
f 19//1 15//1 20//1
f 18//1 16//1 19//1
f 16//1 15//1 19//1
f 18//1 17//1 16//1
f 30//2 31//2 32//2
f 30//2 32//2 33//2
f 33//2 34//2 35//2
f 33//2 35//2 36//2
f 30//2 33//2 36//2
f 29//2 30//2 36//2
f 29//2 36//2 27//2
f 27//2 36//2 25//2
f 29//2 27//2 28//2
f 26//2 27//2 25//2
f 46//2 47//2 48//2
f 46//2 48//2 37//2
f 44//2 45//2 46//2
f 44//2 46//2 37//2
f 44//2 37//2 38//2
f 44//2 38//2 39//2
f 43//1 44//1 39//1
f 42//2 43//2 40//2
f 40//1 43//1 39//1
f 42//2 40//2 41//2
f 98//3 99//3 97//3
f 99//2 111//2 103//2
f 101//4 108//4 102//4
f 102//4 97//4 101//4
f 103//2 97//2 99//2
f 98//3 114//3 100//3
f 105//5 107//5 106//5
f 103//2 107//2 101//2
f 102//1 105//1 104//1
f 104//6 106//6 103//6
f 109//6 111//6 110//6
f 104//1 109//1 100//1
f 100//3 110//3 99//3
f 103//5 112//5 104//5
f 114//1 116//1 115//1
f 102//4 113//4 98//4
f 100//6 115//6 104//6
f 104//5 116//5 102//5
f 121//1 123//1 122//1
f 121//1 124//1 123//1
f 124//1 117//1 125//1
f 124//1 118//1 117//1
f 121//1 118//1 124//1
f 120//1 118//1 121//1
f 120//1 119//1 118//1
f 135//1 137//1 136//1
f 135//1 126//1 137//1
f 133//1 135//1 134//1
f 133//1 126//1 135//1
f 133//1 127//1 126//1
f 133//1 128//1 127//1
f 132//1 128//1 133//1
f 131//1 129//1 132//1
f 129//1 128//1 132//1
f 131//1 130//1 129//1
f 142//2 143//2 144//2
f 142//2 144//2 145//2
f 145//2 146//2 138//2
f 145//2 138//2 139//2
f 142//2 145//2 139//2
f 141//2 142//2 139//2
f 141//2 139//2 140//2
f 156//2 157//2 158//2
f 156//2 158//2 147//2
f 154//2 155//2 156//2
f 154//2 156//2 147//2
f 154//2 147//2 148//2
f 154//2 148//2 149//2
f 153//1 154//1 149//1
f 152//2 153//2 150//2
f 150//1 153//1 149//1
f 152//2 150//2 151//2
f 210//5 212//5 211//5
f 210//5 201//5 212//5
f 208//5 210//5 209//5
f 208//5 201//5 210//5
f 208//5 202//5 201//5
f 208//5 203//5 202//5
f 207//1 203//1 208//1
f 206//5 204//5 207//5
f 204//2 203//2 207//2
f 206//5 205//5 204//5
f 220//5 214//5 213//5
f 220//5 219//5 214//5
f 219//5 215//5 214//5
f 218//5 215//5 219//5
f 218//5 216//5 215//5
f 218//5 217//5 216//5
f 230//3 231//3 232//3
f 230//3 232//3 221//3
f 228//3 229//3 230//3
f 228//3 230//3 221//3
f 228//3 221//3 222//3
f 228//3 222//3 223//3
f 227//1 228//1 223//1
f 226//3 227//3 224//3
f 224//1 227//1 223//1
f 226//3 224//3 225//3
f 240//3 233//3 234//3
f 240//3 234//3 239//3
f 239//3 234//3 235//3
f 238//3 239//3 235//3
f 238//3 235//3 236//3
f 238//3 236//3 237//3
f 98//3 100//3 99//3
f 99//2 110//2 111//2
f 101//4 107//4 108//4
f 102//4 98//4 97//4
f 103//2 101//2 97//2
f 98//3 113//3 114//3
f 105//5 108//5 107//5
f 103//2 106//2 107//2
f 102//1 108//1 105//1
f 104//6 105//6 106//6
f 109//6 112//6 111//6
f 104//1 112//1 109//1
f 100//3 109//3 110//3
f 103//5 111//5 112//5
f 114//1 113//1 116//1
f 102//4 116//4 113//4
f 100//6 114//6 115//6
f 104//5 115//5 116//5
s 1
f 52//7 49//7 50//7
f 54//8 51//7 52//7
f 56//8 53//8 54//8
f 58//8 55//8 56//8
f 60//9 57//8 58//8
f 62//9 59//9 60//9
f 64//9 61//9 62//9
f 66//10 63//9 64//9
f 68//10 65//10 66//10
f 70//10 67//10 68//10
f 72//7 69//10 70//10
f 50//7 71//7 72//7
f 76//11 73//12 74//12
f 78//13 75//11 76//11
f 80//14 77//13 78//13
f 82//15 79//14 80//14
f 84//16 81//15 82//15
f 86//17 83//16 84//16
f 88//18 85//17 86//17
f 90//19 87//18 88//18
f 92//20 89//19 90//19
f 94//21 91//20 92//20
f 96//22 93//21 94//21
f 74//12 95//22 96//22
f 162//10 159//10 160//10
f 164//7 161//10 162//10
f 166//7 163//7 164//7
f 168//7 165//7 166//7
f 170//8 167//7 168//7
f 172//8 169//8 170//8
f 174//8 171//8 172//8
f 176//9 173//8 174//8
f 178//9 175//9 176//9
f 180//9 177//9 178//9
f 182//10 179//9 180//9
f 160//10 181//10 182//10
f 186//23 183//24 184//24
f 188//7 185//23 186//23
f 190//8 187//7 188//7
f 192//25 189//8 190//8
f 194//26 191//25 192//25
f 196//27 193//26 194//26
f 198//28 195//27 196//27
f 200//29 197//28 198//28
f 184//24 199//29 200//29
f 244//30 241//31 242//31
f 246//30 243//30 244//30
f 248//32 245//30 246//30
f 250//33 247//32 248//32
f 252//34 249//33 250//33
f 254//34 251//34 252//34
f 256//35 253//34 254//34
f 242//31 255//35 256//35
f 260//32 257//32 258//32
f 262//33 259//32 260//32
f 264//33 261//33 262//33
f 266//33 263//33 264//33
f 268//35 265//33 266//33
f 270//35 267//35 268//35
f 272//35 269//35 270//35
f 274//31 271//35 272//35
f 276//31 273//31 274//31
f 278//31 275//31 276//31
f 280//32 277//31 278//31
f 258//32 279//32 280//32
f 52//7 51//7 49//7
f 54//8 53//8 51//7
f 56//8 55//8 53//8
f 58//8 57//8 55//8
f 60//9 59//9 57//8
f 62//9 61//9 59//9
f 64//9 63//9 61//9
f 66//10 65//10 63//9
f 68//10 67//10 65//10
f 70//10 69//10 67//10
f 72//7 71//7 69//10
f 50//7 49//7 71//7
f 76//11 75//11 73//12
f 78//13 77//13 75//11
f 80//14 79//14 77//13
f 82//15 81//15 79//14
f 84//16 83//16 81//15
f 86//17 85//17 83//16
f 88//18 87//18 85//17
f 90//19 89//19 87//18
f 92//20 91//20 89//19
f 94//21 93//21 91//20
f 96//22 95//22 93//21
f 74//12 73//12 95//22
f 162//10 161//10 159//10
f 164//7 163//7 161//10
f 166//7 165//7 163//7
f 168//7 167//7 165//7
f 170//8 169//8 167//7
f 172//8 171//8 169//8
f 174//8 173//8 171//8
f 176//9 175//9 173//8
f 178//9 177//9 175//9
f 180//9 179//9 177//9
f 182//10 181//10 179//9
f 160//10 159//10 181//10
f 186//23 185//23 183//24
f 188//7 187//7 185//23
f 190//8 189//8 187//7
f 192//25 191//25 189//8
f 194//26 193//26 191//25
f 196//27 195//27 193//26
f 198//28 197//28 195//27
f 200//29 199//29 197//28
f 184//24 183//24 199//29
f 244//30 243//30 241//31
f 246//30 245//30 243//30
f 248//32 247//32 245//30
f 250//33 249//33 247//32
f 252//34 251//34 249//33
f 254//34 253//34 251//34
f 256//35 255//35 253//34
f 242//31 241//31 255//35
f 260//32 259//32 257//32
f 262//33 261//33 259//32
f 264//33 263//33 261//33
f 266//33 265//33 263//33
f 268//35 267//35 265//33
f 270//35 269//35 267//35
f 272//35 271//35 269//35
f 274//31 273//31 271//35
f 276//31 275//31 273//31
f 278//31 277//31 275//31
f 280//32 279//32 277//31
f 258//32 257//32 279//32
